<svg aria-hidden="true" style="position: absolute; width: 0; height: 0; overflow: hidden;" version="1.1" xmlns="http://www.w3.org/2000/svg" xmlns:xlink="http://www.w3.org/1999/xlink">
<defs>
<symbol id="icon-facebook" viewBox="0 0 32 32">
<path fill="#1877f2" style="fill: var(--color1, #1877f2)" d="M31.997 15.999c0-8.836-7.163-15.999-15.999-15.999s-15.999 7.163-15.999 15.999c0 7.985 5.851 14.604 13.499 15.804v-11.18h-4.062v-4.625h4.062v-3.525c0-4.010 2.389-6.225 6.043-6.225 1.75 0 3.581 0.313 3.581 0.313v3.937h-2.017c-1.987 0-2.607 1.233-2.607 2.498v3.001h4.437l-0.709 4.625h-3.728v11.18c7.649-1.2 13.499-7.819 13.499-15.804z"></path>
</symbol>
<symbol id="icon-instagram" viewBox="0 0 32 32">
<path fill="#e4405f" style="fill: var(--color2, #e4405f)" d="M16 0c-4.347 0-4.889 0.020-6.596 0.096-1.704 0.080-2.864 0.348-3.884 0.744-1.052 0.408-1.945 0.956-2.835 1.845s-1.439 1.781-1.845 2.835c-0.396 1.020-0.665 2.18-0.744 3.884-0.080 1.707-0.096 2.249-0.096 6.596s0.020 4.889 0.096 6.596c0.080 1.703 0.348 2.864 0.744 3.884 0.408 1.051 0.956 1.945 1.845 2.835 0.889 0.888 1.781 1.439 2.835 1.845 1.021 0.395 2.181 0.665 3.884 0.744 1.707 0.080 2.249 0.096 6.596 0.096s4.889-0.020 6.596-0.096c1.703-0.080 2.864-0.349 3.884-0.744 1.051-0.408 1.945-0.957 2.835-1.845 0.888-0.889 1.439-1.78 1.845-2.835 0.395-1.020 0.665-2.181 0.744-3.884 0.080-1.707 0.096-2.249 0.096-6.596s-0.020-4.889-0.096-6.596c-0.080-1.703-0.349-2.865-0.744-3.884-0.408-1.052-0.957-1.945-1.845-2.835-0.889-0.889-1.78-1.439-2.835-1.845-1.020-0.396-2.181-0.665-3.884-0.744-1.707-0.080-2.249-0.096-6.596-0.096zM16 2.88c4.271 0 4.78 0.021 6.467 0.095 1.56 0.073 2.407 0.332 2.969 0.553 0.749 0.289 1.28 0.636 1.843 1.195 0.559 0.56 0.905 1.092 1.195 1.841 0.219 0.563 0.48 1.409 0.551 2.969 0.076 1.688 0.093 2.195 0.093 6.467s-0.020 4.78-0.099 6.467c-0.081 1.56-0.341 2.407-0.561 2.969-0.299 0.749-0.639 1.28-1.199 1.843-0.559 0.559-1.099 0.905-1.84 1.195-0.56 0.219-1.42 0.48-2.98 0.551-1.699 0.076-2.199 0.093-6.479 0.093-4.281 0-4.781-0.020-6.479-0.099-1.561-0.081-2.421-0.341-2.981-0.561-0.759-0.299-1.28-0.639-1.839-1.199-0.561-0.559-0.92-1.099-1.2-1.84-0.22-0.56-0.479-1.42-0.56-2.98-0.060-1.68-0.081-2.199-0.081-6.459 0-4.261 0.021-4.781 0.081-6.481 0.081-1.56 0.34-2.419 0.56-2.979 0.28-0.76 0.639-1.28 1.2-1.841 0.559-0.559 1.080-0.919 1.839-1.197 0.56-0.221 1.401-0.481 2.961-0.561 1.7-0.060 2.2-0.080 6.479-0.080zM16 7.784c-4.54 0-8.216 3.68-8.216 8.216 0 4.54 3.68 8.216 8.216 8.216 4.54 0 8.216-3.68 8.216-8.216 0-4.54-3.68-8.216-8.216-8.216zM16 21.333c-2.947 0-5.333-2.387-5.333-5.333s2.387-5.333 5.333-5.333 5.333 2.387 5.333 5.333-2.387 5.333-5.333 5.333zM26.461 7.46c0 1.060-0.861 1.92-1.92 1.92-1.060 0-1.92-0.861-1.92-1.92s0.861-1.919 1.92-1.919c1.057-0.001 1.92 0.86 1.92 1.919z"></path>
</symbol>
<symbol id="icon-paypal" viewBox="0 0 32 32">
<path fill="#00457c" style="fill: var(--color3, #00457c)" d="M9.211 32h-4.139c-0.885 0-1.448-0.705-1.248-1.573l0.199-0.899h2.761c0.888 0 1.781-0.711 1.976-1.576l1.419-6.123c0.2-0.864 1.088-1.573 1.973-1.573h1.177c5.052 0 8.979-1.039 11.787-3.12s4.213-4.8 4.213-8.18c0-1.5-0.26-2.74-0.784-3.719 0-0.021-0.021-0.041-0.021-0.061l0.18 0.1c1 0.62 1.76 1.419 2.281 2.419 0.539 1 0.797 2.24 0.797 3.721 0 3.38-1.399 6.099-4.219 8.18-2.8 2.060-6.74 3.099-11.779 3.099h-1.2c-0.88 0-1.779 0.7-1.979 1.581l-1.42 6.14c-0.199 0.86-1.080 1.56-1.96 1.56zM5.641 28.407h-4.14c-0.884 0-1.445-0.705-1.248-1.573l5.831-25.257c0.201-0.871 1.087-1.576 1.975-1.576h8.62c1.86 0 3.479 0.131 4.864 0.385 1.38 0.252 2.56 0.692 3.579 1.32 0.981 0.62 1.763 1.429 2.263 2.424 0.519 0.997 0.779 2.24 0.779 3.729 0 3.38-1.401 6.099-4.219 8.159-2.8 2.081-6.741 3.101-11.781 3.101h-1.177c-0.88 0-1.771 0.699-1.971 1.559l-1.415 6.119c-0.199 0.861-1.089 1.563-1.98 1.563zM15.569 5.248h-1.352c-0.888 0-1.776 0.705-1.973 1.571l-1.24 5.36c-0.2 0.864 0.36 1.572 1.24 1.572h1.021c2.219 0 3.96-0.457 5.2-1.361 1.239-0.915 1.86-2.205 1.86-3.883 0-1.107-0.401-1.927-1.2-2.453-0.8-0.539-2-0.807-3.581-0.807z"></path>
</symbol>
<symbol id="icon-telegram" viewBox="0 0 32 32">
<path fill="#2ca5e0" style="fill: var(--color4, #2ca5e0)" d="M31.88 5.053l-4.813 22.733c-0.333 1.613-1.307 2-2.667 1.253l-7.333-5.427-3.547 3.427c-0.4 0.4-0.733 0.747-1.467 0.747-0.96 0-0.8-0.36-1.12-1.267l-2.533-8.253-7.267-2.267c-1.573-0.467-1.587-1.547 0.347-2.333l28.347-10.933c1.293-0.573 2.533 0.32 2.053 2.32z"></path>
</symbol>
<symbol id="icon-twitter" viewBox="0 0 32 32">
<path fill="#1da1f2" style="fill: var(--color5, #1da1f2)" d="M31.939 6.092c-1.18 0.519-2.44 0.872-3.767 1.033 1.352-0.815 2.392-2.099 2.884-3.631-1.268 0.74-2.673 1.279-4.169 1.579-1.195-1.279-2.897-2.079-4.788-2.079-3.623 0-6.56 2.937-6.56 6.556 0 0.52 0.060 1.020 0.169 1.499-5.453-0.257-10.287-2.876-13.521-6.835-0.569 0.963-0.888 2.081-0.888 3.3 0 2.28 1.16 4.284 2.917 5.461-1.076-0.035-2.088-0.331-2.971-0.821v0.081c0 3.18 2.257 5.832 5.261 6.436-0.551 0.148-1.132 0.228-1.728 0.228-0.419 0-0.82-0.040-1.221-0.115 0.841 2.604 3.26 4.503 6.139 4.556-2.24 1.759-5.079 2.807-8.136 2.807-0.52 0-1.039-0.031-1.56-0.089 2.919 1.859 6.357 2.945 10.076 2.945 12.072 0 18.665-9.995 18.665-18.648 0-0.279 0-0.56-0.020-0.84 1.281-0.919 2.4-2.080 3.28-3.397z"></path>
</symbol>
<symbol id="icon-phone" viewBox="0 0 20 20">
<path d="M11.229 11.229c-1.583 1.582-3.417 3.096-4.142 2.371-1.037-1.037-1.677-1.941-3.965-0.102-2.287 1.838-0.53 3.064 0.475 4.068 1.16 1.16 5.484 0.062 9.758-4.211 4.273-4.274 5.368-8.598 4.207-9.758-1.005-1.006-2.225-2.762-4.063-0.475s-0.936 2.927 0.103 3.965c0.722 0.725-0.791 2.559-2.373 4.142z"></path>
</symbol>
<symbol id="icon-gmail" viewBox="0 0 32 32">
<path fill="#d14836" style="fill: var(--color1, #d14836)" d="M32 6v20c0 1.133-0.867 2-2 2h-2v-18.151l-12 8.617-12-8.617v18.151h-2c-1.135 0-2-0.867-2-2v-20c0-0.567 0.216-1.067 0.575-1.424 0.359-0.363 0.86-0.576 1.425-0.576h0.667l13.333 9.667 13.333-9.667h0.667c0.567 0 1.067 0.216 1.425 0.576 0.36 0.357 0.575 0.857 0.575 1.424z"></path>
</symbol>

<!-- added svgs -->
<symbol id="icon-globe" viewBox="0 0 20 20">
<path d="M10 0.4c-5.295 0-9.601 4.307-9.601 9.6s4.306 9.6 9.601 9.6c5.293 0 9.6-4.307 9.6-9.6s-4.307-9.6-9.6-9.6zM18.188 10c0 1.873-0.636 3.6-1.696 4.98-0.3-0.234-0.619-0.867-0.319-1.523 0.303-0.66 0.382-2.188 0.312-2.783-0.066-0.594-0.375-2.025-1.214-2.039-0.838-0.012-1.413-0.289-1.911-1.283-1.033-2.068 1.939-2.465 0.906-3.609-0.289-0.322-1.783 1.322-2.002-0.869-0.014-0.157 0.135-0.392 0.336-0.636 3.244 1.090 5.588 4.157 5.588 7.762zM8.875 1.893c-0.196 0.382-0.713 0.537-1.027 0.824-0.684 0.619-0.978 0.533-1.346 1.127-0.371 0.594-1.567 1.449-1.567 1.879s0.604 0.936 0.906 0.838c0.302-0.1 1.099-0.094 1.567 0.070 0.469 0.166 3.914 0.332 2.816 3.244-0.348 0.926-1.873 0.77-2.279 2.303-0.061 0.225-0.272 1.186-0.285 1.5-0.025 0.486 0.344 2.318-0.125 2.318-0.471 0-1.738-1.639-1.738-1.936s-0.328-1.338-0.328-2.23c0-0.891-1.518-0.877-1.518-2.062 0-1.068 0.823-1.6 0.638-2.113-0.181-0.51-1.627-0.527-2.23-0.59 1.053-2.731 3.53-4.758 6.516-5.172zM7.424 17.77c0.492-0.26 0.542-0.596 0.988-0.613 0.51-0.023 0.925-0.199 1.5-0.326 0.51-0.111 1.423-0.629 2.226-0.695 0.678-0.055 2.015 0.035 2.375 0.689-1.295 0.861-2.848 1.363-4.514 1.363-0.899 0-1.765-0.149-2.575-0.418z"></path>
</symbol>

<symbol id="icon-phone" viewBox="0 0 24 24">
<path d="M6.609 10.781q2.25 4.359 6.609 6.609l2.203-2.203q0.469-0.469 1.031-0.234 1.688 0.563 3.563 0.563 0.422 0 0.703 0.281t0.281 0.703v3.516q0 0.422-0.281 0.703t-0.703 0.281q-7.031 0-12.023-4.992t-4.992-12.023q0-0.422 0.281-0.703t0.703-0.281h3.516q0.422 0 0.703 0.281t0.281 0.703q0 1.875 0.563 3.563 0.188 0.609-0.234 1.031z"></path>
</symbol>
<symbol id="icon-map-pin" viewBox="0 0 24 32">
<title>map-pin</title>
<path d="M12 0c-6.617 0-12 5.394-12 12.022 0 9.927 11.201 19.459 11.678 19.86 0.093 0.079 0.208 0.118 0.322 0.118s0.226-0.038 0.318-0.114c0.477-0.394 11.682-9.762 11.682-19.864 0-6.628-5.383-12.022-12-12.022zM12.002 30.838c-1.841-1.645-11.002-10.259-11.002-18.816 0-6.078 4.935-11.022 11-11.022s11 4.944 11 11.022c0 8.702-9.152 17.193-10.998 18.816zM12 6c-3.309 0-6 2.691-6 6s2.691 6 6 6 6-2.691 6-6-2.691-6-6-6zM12 17c-2.757 0-5-2.243-5-5s2.243-5 5-5 5 2.243 5 5-2.243 5-5 5z"></path>
</symbol>
<symbol id="icon-whatsapp" viewBox="0 0 32 32">
<path d="M27.281 4.65c-2.994-3-6.975-4.65-11.219-4.65-8.738 0-15.85 7.112-15.85 15.856 0 2.794 0.731 5.525 2.119 7.925l-2.25 8.219 8.406-2.206c2.319 1.262 4.925 1.931 7.575 1.931h0.006c0 0 0 0 0 0 8.738 0 15.856-7.113 15.856-15.856 0-4.238-1.65-8.219-4.644-11.219zM16.069 29.050v0c-2.369 0-4.688-0.637-6.713-1.837l-0.481-0.288-4.987 1.306 1.331-4.863-0.313-0.5c-1.325-2.094-2.019-4.519-2.019-7.012 0-7.269 5.912-13.181 13.188-13.181 3.519 0 6.831 1.375 9.319 3.862 2.488 2.494 3.856 5.8 3.856 9.325-0.006 7.275-5.919 13.188-13.181 13.188zM23.294 19.175c-0.394-0.2-2.344-1.156-2.706-1.288s-0.625-0.2-0.894 0.2c-0.262 0.394-1.025 1.288-1.256 1.556-0.231 0.262-0.462 0.3-0.856 0.1s-1.675-0.619-3.188-1.969c-1.175-1.050-1.975-2.35-2.206-2.744s-0.025-0.613 0.175-0.806c0.181-0.175 0.394-0.463 0.594-0.694s0.262-0.394 0.394-0.662c0.131-0.262 0.069-0.494-0.031-0.694s-0.894-2.15-1.219-2.944c-0.319-0.775-0.65-0.669-0.894-0.681-0.231-0.012-0.494-0.012-0.756-0.012s-0.694 0.1-1.056 0.494c-0.363 0.394-1.387 1.356-1.387 3.306s1.419 3.831 1.619 4.1c0.2 0.262 2.794 4.269 6.769 5.981 0.944 0.406 1.681 0.65 2.256 0.837 0.95 0.3 1.813 0.256 2.494 0.156 0.762-0.113 2.344-0.956 2.675-1.881s0.331-1.719 0.231-1.881c-0.094-0.175-0.356-0.275-0.756-0.475z"></path>
<symbol id="icon-socialfacebook2" viewBox="0 0 32 32">
<path d="M29 0h-26c-1.65 0-3 1.35-3 3v26c0 1.65 1.35 3 3 3h13v-14h-4v-4h4v-2c0-3.306 2.694-6 6-6h4v4h-4c-1.1 0-2 0.9-2 2v2h6l-1 4h-5v14h9c1.65 0 3-1.35 3-3v-26c0-1.65-1.35-3-3-3z"></path>
</symbol>
<symbol id="icon-linkedin" viewBox="0 0 32 32">
<path fill="#0077b5" style="fill: var(--color1, #0077b5)" d="M27.263 27.269h-4.739v-7.425c0-1.771-0.036-4.049-2.469-4.049-2.471 0-2.848 1.927-2.848 3.919v7.556h-4.739v-15.269h4.552v2.081h0.061c0.636-1.2 2.183-2.467 4.493-2.467 4.801 0 5.689 3.16 5.689 7.273zM7.116 9.911c-1.525 0-2.751-1.235-2.751-2.753 0-1.517 1.227-2.751 2.751-2.751 1.52 0 2.752 1.233 2.752 2.751 0 1.519-1.233 2.753-2.752 2.753zM9.492 27.269h-4.752v-15.269h4.752zM29.633 0h-27.272c-1.305 0-2.361 1.032-2.361 2.305v27.389c0 1.275 1.056 2.305 2.361 2.305h27.268c1.304 0 2.371-1.031 2.371-2.305v-27.389c0-1.273-1.067-2.305-2.371-2.305z"></path>
</symbol>
</defs>
</svg>
